<svg width="35" height="28" viewBox="0 0 35 28" xmlns="http://www.w3.org/2000/svg"><title>ico-CFM</title><g fill="none" fill-rule="evenodd"><path d="M.5-1h34.18v30.725H.5z"/><path d="M16.115 7.875a9.13 9.13 0 0 0-6.47-2.68 9.13 9.13 0 0 0-6.47 2.68 9.13 9.13 0 0 0-2.68 6.47 9.135 9.135 0 0 0 2.68 6.47 9.13 9.13 0 0 0 6.47 2.68 9.135 9.135 0 0 0 6.47-2.68 9.13 9.13 0 0 0 2.68-6.47 9.13 9.13 0 0 0-2.68-6.47zm-3.33 9.61a4.415 4.415 0 0 1-3.14 1.3 4.415 4.415 0 0 1-3.14-1.3 4.415 4.415 0 0 1-1.3-3.14 4.415 4.415 0 0 1 1.3-3.14 4.415 4.415 0 0 1 3.14-1.3 4.415 4.415 0 0 1 3.14 1.3 4.415 4.415 0 0 1 1.3 3.14 4.415 4.415 0 0 1-1.3 3.14z" fill="#8BC34A" fill-rule="nonzero"/><path d="M12 14.345a8.965 8.965 0 0 1 .62-3.295 4.41 4.41 0 0 0-3-1.145 4.43 4.43 0 0 0-1.735.35 13.67 13.67 0 0 0-.62 4.09 13.67 13.67 0 0 0 .62 4.09 4.43 4.43 0 0 0 1.735.35 4.41 4.41 0 0 0 3-1.145 8.965 8.965 0 0 1-.62-3.295z" fill="#4FC3F7" fill-rule="nonzero"/><path d="M30.67 4.665a13.66 13.66 0 0 0-9.68-4 13.66 13.66 0 0 0-10.25 4.6 9.135 9.135 0 0 1 4.71 2 8.93 8.93 0 0 1 5.535-1.91 8.945 8.945 0 0 1 6.35 2.63 8.945 8.945 0 0 1 2.63 6.35 8.945 8.945 0 0 1-2.63 6.35 8.945 8.945 0 0 1-6.35 2.63 8.93 8.93 0 0 1-5.535-1.91 9.135 9.135 0 0 1-4.71 2 13.66 13.66 0 0 0 10.245 4.6A13.66 13.66 0 0 0 34.67 14.32a13.66 13.66 0 0 0-4-9.655z" fill="#4FC3F7" fill-rule="nonzero"/><path d="M12.625 17.64a4.41 4.41 0 0 1-3 1.145 4.43 4.43 0 0 1-1.735-.35 13.68 13.68 0 0 0 2.825 5 9.135 9.135 0 0 0 4.71-2 9 9 0 0 1-2.815-3.785M10.725 5.27a13.68 13.68 0 0 0-2.825 5 4.43 4.43 0 0 1 1.735-.35 4.41 4.41 0 0 1 3 1.145 9 9 0 0 1 2-3.06 9.13 9.13 0 0 1 .815-.72 9.135 9.135 0 0 0-4.71-2" fill="#2B9548" fill-rule="nonzero"/></g></svg>